Coordinates
version=1
nRows=10
nColumns=22
inDegrees=yes

Units are S.I. units (second, meters, Newtons, ...)
If the header above contains a line with 'inDegrees', this indicates whether rotational values are in degrees (yes) or radians (no).

endheader
time	pelvis_tilt	pelvis_list	pelvis_rotation	pelvis_tx	pelvis_ty	pelvis_tz	hip_flexion_r	hip_adduction_r	hip_rotation_r	knee_angle_r	ankle_angle_r	subtalar_angle_r	hip_flexion_l	hip_adduction_l	hip_rotation_l	knee_angle_l	ankle_angle_l	subtalar_angle_l	lumbar_extension	lumbar_bending	lumbar_rotation
      0.01000000	    -11.46884763	     -0.46814757	    -17.72101531	     -1.12431042	      0.97770464	     -0.36250251	     16.72775625	      4.99163533	     -1.18279183	    -16.50832865	     16.12693919	    -11.37989188	     18.26541201	     -2.82415271	     -7.88109858	    -19.95531997	     20.64387481	     -2.05228455	      2.78517206	      4.75166265	      3.42640825
      0.02000000	    -11.47895288	     -0.46708337	    -17.71863764	     -1.12417103	      0.97768695	     -0.36261000	     16.72949202	      4.98511034	     -1.17762638	    -16.50495776	     16.12961348	    -11.37769239	     18.26874915	     -2.81642170	     -7.88228556	    -19.95191641	     20.64545728	     -2.05147883	      2.77489628	      4.75821841	      3.42768054
      0.03000000	    -11.49293181	     -0.44936372	    -17.71799342	     -1.12399321	      0.97765628	     -0.36272511	     16.72766720	      4.96679198	     -1.11812748	    -16.48447459	     16.16241015	    -11.35685589	     18.27505420	     -2.78935739	     -7.87053746	    -19.94329584	     20.65902359	     -2.04642854	      2.77628711	      4.74603127	      3.42582053
      0.04000000	    -11.50672573	     -0.44927257	    -17.71330702	     -1.12381377	      0.97763389	     -0.36287085	     16.73087381	      4.95944288	     -1.11289588	    -16.48083290	     16.16527645	    -11.35494608	     18.27916376	     -2.78069514	     -7.87450056	    -19.93745280	     20.65956883	     -2.04616612	      2.76224202	      4.75343137	      3.42836167
      0.05000000	    -11.52811545	     -0.42643440	    -17.71385316	     -1.12361704	      0.97759323	     -0.36300227	     16.73722436	      4.93697319	     -1.05463773	    -16.45952464	     16.20336523	    -11.33245071	     18.29101952	     -2.75155202	     -7.88017223	    -19.92368592	     20.66502863	     -2.04529145	      2.76739973	      4.73419471	      3.42716256
      0.06000000	    -11.54439630	     -0.42734893	    -17.70718847	     -1.12342693	      0.97756781	     -0.36316048	     16.74232898	      4.92957652	     -1.05151221	    -16.45617833	     16.20548656	    -11.33084347	     18.29654627	     -2.74362631	     -7.88555137	    -19.91726485	     20.66544495	     -2.04532852	      2.75153989	      4.74080509	      3.43002317
      0.07000000	    -11.61340007	     -0.38358335	    -17.70794012	     -1.12327661	      0.97743525	     -0.36331233	     16.83076186	      4.89668321	     -1.02134496	    -16.48053492	     16.25588916	    -11.26722288	     18.37249557	     -2.71018474	     -7.90388187	    -19.91509630	     20.65836624	     -2.04726080	      2.81125907	      4.71267891	      3.43417227
      0.08000000	    -11.63278286	     -0.38632174	    -17.70121205	     -1.12309007	      0.97741038	     -0.36347013	     16.83647828	      4.89133061	     -1.02351769	    -16.47232457	     16.25603598	    -11.26664588	     18.37960617	     -2.70543283	     -7.90996892	    -19.90695330	     20.66015996	     -2.04743862	      2.79347497	      4.71713019	      3.43386001
      0.09000000	    -11.72017012	     -0.38716249	    -17.65228512	     -1.12289303	      0.97726676	     -0.36369587	     16.90891805	      4.88925603	     -1.09371621	    -16.45618578	     16.23657664	    -11.24329636	     18.48199398	     -2.70981268	     -7.88367008	    -19.93399425	     20.68329295	     -2.05050726	      2.86315144	      4.74292981	      3.36543664
      0.10000000	    -11.75529637	     -0.38760097	    -17.64787924	     -1.12264830	      0.97722029	     -0.36385528	     16.92434280	      4.88401233	     -1.10938555	    -16.44024877	     16.24540428	    -11.24235538	     18.49132744	     -2.70618772	     -7.89694548	    -19.90399284	     20.68626553	     -2.05135966	      2.87159933	      4.75328140	      3.36019856
